<?xml version="1.0" encoding="utf-8"?>
<!-- Generator: Adobe Illustrator 26.1.0, SVG Export Plug-In . SVG Version: 6.00 Build 0)  -->
<svg version="1.1" xmlns="http://www.w3.org/2000/svg" xmlns:xlink="http://www.w3.org/1999/xlink" x="0px" y="0px"
	 viewBox="0 0 2834.65 2834.65" style="enable-background:new 0 0 2834.65 2834.65;" xml:space="preserve">
<style type="text/css">
	.st0{display:none;}
	.st1{display:inline;}
	.st2{fill:url(#SVGID_1_);}
	.st3{fill:url(#SVGID_00000024685469234294659370000000573297148644604577_);}
	.st4{fill:url(#SVGID_00000098214692616047577170000016176306381073776526_);}
	.st5{display:inline;fill:#FFFFFF;}
	.st6{display:inline;fill:#0F3F03;}
	.st7{font-family:'Calibri-BoldItalic';}
	.st8{font-size:59.3624px;}
	.st9{fill:url(#SVGID_00000039109837871584812170000006921573863480859031_);}
	.st10{fill:url(#SVGID_00000129193717180941759490000008848197946425498255_);}
	.st11{fill:url(#SVGID_00000096051893919191228540000004626764315802985357_);}
	.st12{fill:url(#SVGID_00000013885460013032890560000001068294310952576640_);}
	.st13{fill:url(#SVGID_00000031207574633523979550000011177414298228315319_);}
	.st14{fill:url(#SVGID_00000003070171219052604900000007490335138110564525_);}
	.st15{fill:url(#SVGID_00000116201786345496973390000004644789115699835305_);}
	.st16{fill:url(#SVGID_00000027587217589318298360000006033443692980891819_);}
	.st17{fill:url(#SVGID_00000091000066257973857840000001707883167597694859_);}
	.st18{fill:url(#SVGID_00000169536823515670374300000001105098467499060363_);}
	.st19{fill:#FFFFFF;}
	.st20{fill:#0F3F03;}
</style>
<g id="Layer_2" class="st0">
	<g class="st1">
		<linearGradient id="SVGID_1_" gradientUnits="userSpaceOnUse" x1="446.5711" y1="1733.153" x2="1139.6746" y2="1709.015">
			<stop  offset="5.327789e-09" style="stop-color:#3AAA35"/>
			<stop  offset="1" style="stop-color:#95C11F"/>
		</linearGradient>
		<path class="st2" d="M958.53,1751.89c-66.49-42.66-138.26-52.53-212.96-51.15c68.29-23.07,133.23-10.29,197.34,18.51
			c-16.42-54.58-78.75-87.66-134.26-69.58c-24.02,7.82-45.94,22.19-68.66,33.89c-18.33,9.44-36.44,19.33-54.87,29.14
			c28.63,63.41,105.51,97.93,176.33,75.35C893.56,1777.81,924.71,1764.59,958.53,1751.89z"/>
		<g>
			
				<linearGradient id="SVGID_00000015334088151230367230000009874254453842449821_" gradientUnits="userSpaceOnUse" x1="565.6641" y1="1538.248" x2="1086.5151" y2="1624.0353">
				<stop  offset="5.327789e-09" style="stop-color:#3AAA35"/>
				<stop  offset="1" style="stop-color:#95C11F"/>
			</linearGradient>
			<path style="fill:url(#SVGID_00000015334088151230367230000009874254453842449821_);" d="M864.2,1607.56
				c46.35,16.33,87.17,41.52,113.77,86.38c-9.25-113.85-85.37-178.88-172.63-236.41c31.64,5.49,58.07,21.25,82.46,39.83
				c89.87,68.48,128.57,159.1,114.8,271.67c-0.41,3.35-1.01,6.88-0.39,10.11c0.94,4.92,2.72,9.72,4.6,14.38
				c0.18,0.44,5.26-0.24,5.31-0.73c0.6-5.06,1.58-10.37,0.67-15.28c-8.66-46.72,12.59-86.49,56.54-104.77
				c19.97-8.3,40.65-15.11,60.04-24.58c50.75-24.8,75.98-67.3,80.94-122.58c1.77-19.69,2.24-39.5,3.52-63.28
				c-59.31,16.09-116.19,20.2-160.18,60.36c-18.35,16.76-29.51,34.8-20.45,60.76c2.31,6.62,1.14,14.46,1.81,25.93
				c31.48-51.16,68.34-91.35,123.21-111.18c-67.23,52.37-117.27,116.7-144.08,198.5c-3.38-25.95-5.32-52.18-10.37-77.8
				c-23.4-118.65-140.17-239.07-305.5-214.04"/>
			
				<linearGradient id="SVGID_00000143617865797654694580000004209782017593763730_" gradientUnits="userSpaceOnUse" x1="576.4965" y1="1472.4797" x2="1097.3475" y2="1558.267">
				<stop  offset="5.327789e-09" style="stop-color:#3AAA35"/>
				<stop  offset="1" style="stop-color:#95C11F"/>
			</linearGradient>
			<path style="fill:url(#SVGID_00000143617865797654694580000004209782017593763730_);" d="M864.2,1607.56
				c0,0-147.83-77.25-165.94-202.73L864.2,1607.56z"/>
		</g>
	</g>
	<path class="st5" d="M2156.54,1989.66c-15.48,42.32-26.37,52.19-57.04,51.56c-30.86-0.64-51.85-17.52-66.08-41.34
		c-15.14,13.67-29.92,26.71-44.26,40.23c-2.71,2.56-4.54,6.79-5.32,10.55c-5.85,28.23-15.82,54.37-36.28,75.59
		c-20.74,21.51-54.89,27.88-77.97,14.38c-23.71-13.87-27.99-44.82-6.38-61.82c14.35-11.28,31.81-19.15,48.81-26.32
		c13.06-5.51,21.78-10.98,19-27.22c-1.61-9.42-0.29-19.34-1.31-30.17c-11.77,28.64-28.35,51.01-63.04,46.53
		c-32.29-4.18-47.98-28.67-60.67-52.31c-14.95,5.88-28.94,11.2-42.74,16.98c-2.76,1.15-5.85,3.62-6.97,6.25
		c-22.91,54.05-104.86,58.7-140.71,9.77c-2.46-3.36-4.88-6.74-8.21-11.36c-3.75,5.98-6.55,11.42-10.24,16.17
		c-15.46,19.91-35.39,27.92-60.41,22.1c-24.71-5.75-42.31-21.02-45.78-45.43c-3.65-25.64-1.39-52.11-1.74-78.22
		c-0.09-6.76,0.03-13.56-0.63-20.27c-0.3-3.04-2.28-5.92-3.51-8.87c-3.21,1.57-7.91,2.28-9.38,4.85
		c-7.77,13.53-16.45,26.91-21.6,41.48c-9.56,27.04-17.27,54.76-25.05,82.39c-5.51,19.57-19.58,27.18-39.49,20.11
		c-13.56-4.82-20.43-13.61-26.57-35.62c-16.44,25.41-36.7,42.68-67.86,37.49c-30.99-5.16-48.48-23.91-51.42-53.49
		c-17.12,7.93-33.81,15.55-50.36,23.45c-2.52,1.2-4.68,3.46-6.58,5.6c-36.76,41.45-82.32,54.7-135.24,40.2
		c-15.15-4.15-28.23-12.94-45.61-12.52c-15.84,0.39-23.78-14.19-26.09-28.64c-4.19-26.24-9.01-52.73-9.35-79.17
		c-0.61-48.16,1.06-96.4,3.39-144.52c1.12-23.1,31.32-39.34,51.67-28.37c6.26,3.37,9.33,12.64,13.93,19.3
		c11.67-6.1,25.67-16.73,41.36-20.71c16.17-4.11,34.8-5.24,50.92-1.51c38.42,8.89,53.11,53.51,29.06,87.54
		c-10.65,15.07-26.05,26.8-38.86,39.61c47.65,8.45,83.16,32,82.02,89.48c17.02-2.91,34.18-22.21,36.65-41.88
		c1.53-12.17,1.4-24.56,3.12-36.7c3.28-23.14,20.78-35.07,43.74-30.59c15.43,3.01,18.81,8.98,18.3,24.8
		c-1.02,31.69-1.62,63.44-0.61,95.11c0.27,8.6,6.92,17,10.64,25.49c6.95-6.11,15.87-11.01,20.5-18.54
		c17.99-29.22,24.3-61.86,24.71-95.89c0.08-6.72,0.57-13.61,2.17-20.1c5.21-21,32-33.03,50.72-22.1c4.15,2.42,7.2,10.14,7.33,15.5
		c0.71,28.97,0.33,57.96,0.33,84.28c5.79-16.47,11.27-36.01,19.48-54.32c9.55-21.3,22.72-40.24,49.11-42.86
		c25.67-2.55,60.29,13.22,59.07,50.92c-0.9,27.86-0.42,55.83,1.18,83.65c0.44,7.69,7.07,15.02,10.85,22.51
		c6.41-5.51,14.12-10.06,18.97-16.7c14.35-19.67,14.01-43.53,17.58-66.4c3.32-21.35,9.88-41.54,34.69-48.28
		c2.55-0.69,4.75-4.47,6.16-7.3c17.47-35.08,61.88-45.11,93.69-21.01c23.74,17.98,33.2,43.28,35.4,71.68
		c1.13,14.57,0.2,29.3,0.2,43.89c18.16-2.46,29.68-15.47,30.75-34.11c1.64-28.48,12.84-52.43,35.9-69.92
		c26.34-19.98,61.18-15.66,89.13,9.62c5.27-7.31,9.12-17.51,16.35-21.38c7.76-4.15,18.77-3.41,28.24-2.83
		c10.82,0.66,15.46,7.29,15.64,18.9c0.66,41.93,2.3,83.84,3.61,125.76c0.06,1.91,0.51,3.81,1.1,7.95
		c18.47-17.92,31.92-36,34.51-60.53c2.11-19.98,6.18-39.38,18.71-55.89c27.28-35.92,68.97-41.27,106.26-13.65
		c6.22-26.37,19.62-34.67,44.08-27.04c10.35,3.23,15.29,9.01,14.8,21.42c-1.43,35.88-1.31,71.84-1.25,107.76
		c0.01,6.6,1.85,13.52,4.31,19.7c1.85,4.65,6.06,11.69,9.22,11.69c4.69,0,11.55-4.21,13.68-8.51c7.64-15.46,14.22-31.52,20.13-47.74
		c3.45-9.48,4.26-19.9,7.49-29.49c1.33-3.95,7.31-10.14,8.76-9.53c4.75,1.99,8.65,6.4,12.32,10.39c1.09,1.18,0.92,4.24,0.33,6.12
		c-7.78,24.92-14.06,50.49-24.14,74.46c-8.96,21.31-26.7,33.97-51.35,32.01c-26.1-2.07-39.09-19.35-46.48-42.36
		C2158.97,1997.83,2157.96,1994.31,2156.54,1989.66z M1034.28,1900.21c9.61-2.04,18.08-4.07,26.65-5.61
		c33.53-6.05,60.07-40.26,57.47-74.24c-1.07-13.91-7.85-23.45-19.08-24.92c-22.33-2.92-39.49,8.69-56.81,20.54
		c-11.88,8.12-7.53,19.65-8,29.93C1033.7,1863.44,1034.28,1881.04,1034.28,1900.21z M1032.5,1982.56
		c18.73,0.98,33.77,1.32,48.72,2.66c16.4,1.47,32.72,3.82,49.06,5.87c5.9,0.74,11.16-0.41,9.71-7.5
		c-2.85-13.93-4.54-28.8-10.83-41.18c-10.25-20.18-33.53-29.96-49.49-24.3c-12.73,4.52-25.63,8.59-38.13,13.66
		c-3.58,1.45-8.44,5.5-8.63,8.61C1032,1955.03,1032.5,1969.76,1032.5,1982.56z M1882.66,1888.05
		c-11.24,0.74-15.82,11.38-18.81,21.88c-8.29,29.09-8.73,58.56,1.56,87.19c2.52,7.01,9.89,16.19,15.91,16.9
		c5.7,0.67,15.65-7.18,18.32-13.55c9.09-21.66,16.7-44.07,23.11-66.69C1928,1915.27,1904.24,1887.5,1882.66,1888.05z
		 M2147.48,1928.12c-0.74-0.2-1.49-0.39-2.23-0.59c0-2.96,0.31-5.97-0.05-8.88c-1.73-13.75-11.19-21.32-22.64-26.6
		c-8.93-4.12-17.23-2.05-24.46,4.86c-22.92,21.92-22.27,92.49,1.07,113.79c7.66,6.99,15.44,7.01,22.23-0.43
		c4.17-4.56,8.24-10.15,9.83-15.97C2137.2,1972.4,2142.15,1950.21,2147.48,1928.12z M1729.98,1979.68c0-8.17,0.59-16.54-0.11-24.8
		c-2.08-24.62-6.67-48.63-22.59-68.64c-6.25-7.85-14.28-13.83-25.17-10.99c-10.68,2.78-16.11,10.92-16.65,21.43
		c-0.47,9.12-0.1,18.47,1.42,27.46C1671.79,1953.12,1704.3,1982.31,1729.98,1979.68z M1129.71,2018.8
		c-22.45-2.87-43.23-6.3-64.14-7.69c-5.87-0.39-12.13,5.22-18.21,8.07c3.95,5.9,6.57,14.05,12.09,17.31
		C1080.6,2048.97,1112.95,2040.86,1129.71,2018.8z M1657.98,1968.13c-1.29,0.81-2.58,1.62-3.86,2.43
		c5.68,15.23,10.32,30.96,17.36,45.53c5.64,11.69,17.09,16.47,30.03,13.86c12.17-2.46,19.29-10.82,22.5-22.69
		C1696.77,2002.36,1673.29,1992.31,1657.98,1968.13z M1929.14,2072.82c-1.43-1.17-2.86-2.35-4.29-3.52
		c-12.04,8.85-25.46,16.42-35.44,27.17c-4.17,4.49-3.36,16.68-0.56,23.67c2.6,6.48,15.72,3.08,22.49-5.03
		c1.33-1.6,2.74-3.31,3.49-5.21C1919.69,2097.57,1924.38,2085.18,1929.14,2072.82z"/>
	<text transform="matrix(1 0 0 1 1029.8381 2113.676)" class="st6 st7 st8">From the fresh fields of Sri Lanka</text>
	<circle class="st6" cx="1276.62" cy="1825.98" r="34.71"/>
</g>
<g id="Layer_1" class="st0">
	<g class="st1">
		
			<linearGradient id="SVGID_00000139286313683406954640000006271335492999036085_" gradientUnits="userSpaceOnUse" x1="532.7103" y1="569.524" x2="748.1997" y2="651.2262">
			<stop  offset="5.327789e-09" style="stop-color:#3AAA35"/>
			<stop  offset="1" style="stop-color:#95C11F"/>
		</linearGradient>
		<path style="fill:url(#SVGID_00000139286313683406954640000006271335492999036085_);" d="M813.57,657.3
			c-66.49-42.66-138.26-52.53-212.96-51.15c68.29-23.07,133.23-10.29,197.34,18.51c-16.42-54.58-78.75-87.66-134.26-69.58
			c-24.02,7.82-45.94,22.19-68.66,33.89c-18.33,9.44-36.44,19.33-54.87,29.14c28.63,63.41,105.51,97.93,176.33,75.35
			C748.6,683.22,779.75,670,813.57,657.3z"/>
		
			<linearGradient id="SVGID_00000041276123797424522510000003645195833182037637_" gradientUnits="userSpaceOnUse" x1="599.0795" y1="394.4755" x2="814.5688" y2="476.1776">
			<stop  offset="5.327789e-09" style="stop-color:#3AAA35"/>
			<stop  offset="1" style="stop-color:#95C11F"/>
		</linearGradient>
		<path style="fill:url(#SVGID_00000041276123797424522510000003645195833182037637_);" d="M645.19,311.29
			c115.91,21.39,194.83,117.77,213.62,212.99c5.05,25.62,7,51.85,10.37,77.8c26.81-81.8,76.85-146.13,144.08-198.5
			c-54.87,19.84-91.73,60.02-123.21,111.18c-0.67-11.47,0.51-19.31-1.81-25.93c-9.07-25.96,2.09-44,20.45-60.76
			c43.99-40.16,100.86-44.27,160.18-60.36c-1.28,23.78-1.75,43.59-3.52,63.28c-4.96,55.27-30.19,97.77-80.94,122.58
			c-19.39,9.48-40.07,16.28-60.04,24.58c-43.95,18.27-65.19,58.04-56.54,104.77c0.91,4.91-0.08,10.21-0.67,15.28
			c-0.06,0.49-5.13,1.17-5.31,0.73c-1.88-4.66-3.66-9.46-4.6-14.38c-0.62-3.23-0.02-6.76,0.39-10.11
			c13.77-112.57-24.93-203.19-114.8-271.67c-24.39-18.58-50.82-34.34-82.46-39.83"/>
		
			<linearGradient id="SVGID_00000158739001238296517270000018134180561133776280_" gradientUnits="userSpaceOnUse" x1="599.0349" y1="394.5929" x2="814.5243" y2="476.2951">
			<stop  offset="5.327789e-09" style="stop-color:#3AAA35"/>
			<stop  offset="1" style="stop-color:#95C11F"/>
		</linearGradient>
		<path style="fill:url(#SVGID_00000158739001238296517270000018134180561133776280_);" d="M833.01,599.35
			c0,0-221.73-158.25-211.01-309.91c0,0,78.47,11.55,182.72,119.5c0,0-65.62-49.54-66.64-49.88c-1.02-0.34-25.87-14.64-25.87-14.64
			l-21.11-3.74l-22.81-7.83v5.11l-7.92,6.47l-2.97,3.4l4.43,5.45l1.7,5.11l-3.16,2.04v2.53
			C747.63,420.47,823.75,485.5,833.01,599.35c-17.43-29.4-40.97-50.35-68.16-65.9"/>
		
			<linearGradient id="SVGID_00000081616945429012670020000011730288135714693774_" gradientUnits="userSpaceOnUse" x1="572.3473" y1="464.9816" x2="787.8367" y2="546.6837">
			<stop  offset="5.327789e-09" style="stop-color:#3AAA35"/>
			<stop  offset="1" style="stop-color:#95C11F"/>
		</linearGradient>
		<path style="fill:url(#SVGID_00000081616945429012670020000011730288135714693774_);" d="M833.01,599.35l-19.43-64.29
			l-41.45-29.88l-17.36,12.51C754.76,517.7,749.89,538.03,833.01,599.35z"/>
		
			<linearGradient id="SVGID_00000130638331767893429120000004559039472320547993_" gradientUnits="userSpaceOnUse" x1="592.3387" y1="412.2541" x2="807.8281" y2="493.9562">
			<stop  offset="5.327789e-09" style="stop-color:#3AAA35"/>
			<stop  offset="1" style="stop-color:#95C11F"/>
		</linearGradient>
		<path style="fill:url(#SVGID_00000130638331767893429120000004559039472320547993_);" d="M833.01,599.35
			c0,0-8.13-99.08-83.35-181.74c0,0,98.1,82.91,107.37,168.43v-41.79c0,0-19.54-35.24-19.54-39.07c0-3.83-12.96-34.46-12.1-37.53
			c0.86-3.06-26.71-41.87-26.71-41.87l-22.47-27.57l-26.55-21.45l-43.91-17.36l-28.86-6.13h-22.2l27.57,54.13
			c0,0,40.08,55.15,45.06,58.21c4.98,3.06,51.96,65.36,51.96,65.36l26.55,33.7L833.01,599.35z"/>
	</g>
	<path class="st1" d="M2011.59,895.07c-15.48,42.32-26.37,52.19-57.04,51.56c-30.86-0.64-51.85-17.52-66.08-41.34
		c-15.14,13.67-29.92,26.71-44.26,40.23c-2.71,2.56-4.54,6.79-5.32,10.55c-5.85,28.23-15.82,54.37-36.28,75.59
		c-20.74,21.51-54.89,27.88-77.97,14.38c-23.71-13.87-27.99-44.82-6.38-61.82c14.35-11.28,31.81-19.15,48.81-26.32
		c13.06-5.51,21.78-10.98,19-27.22c-1.61-9.42-0.29-19.34-1.31-30.17c-11.77,28.64-28.35,51.01-63.04,46.53
		c-32.29-4.18-47.98-28.67-60.67-52.31c-14.95,5.88-28.94,11.2-42.74,16.98c-2.76,1.15-5.85,3.62-6.97,6.25
		c-22.91,54.05-104.86,58.7-140.71,9.77c-2.46-3.36-4.88-6.74-8.21-11.36c-3.75,5.98-6.55,11.42-10.24,16.17
		c-15.46,19.91-35.39,27.92-60.41,22.1c-24.71-5.75-42.31-21.02-45.78-45.43c-3.65-25.64-1.39-52.11-1.74-78.22
		c-0.09-6.76,0.03-13.56-0.63-20.27c-0.3-3.04-2.28-5.92-3.51-8.87c-3.21,1.57-7.91,2.28-9.38,4.85
		c-7.77,13.53-16.45,26.91-21.6,41.48c-9.56,27.04-17.27,54.76-25.05,82.39c-5.51,19.57-19.58,27.18-39.49,20.11
		c-13.56-4.82-20.43-13.61-26.57-35.62c-16.44,25.41-36.7,42.68-67.86,37.49c-30.99-5.16-48.48-23.91-51.42-53.49
		c-17.12,7.93-33.81,15.55-50.36,23.45c-2.52,1.2-4.68,3.46-6.58,5.6c-36.76,41.45-82.32,54.7-135.24,40.2
		c-15.15-4.15-28.23-12.94-45.61-12.52c-15.84,0.39-23.78-14.19-26.09-28.64c-4.19-26.24-9.01-52.73-9.35-79.17
		c-0.61-48.16,1.06-96.4,3.39-144.52c1.12-23.1,31.32-39.34,51.67-28.37c6.26,3.37,9.33,12.64,13.93,19.3
		c11.67-6.1,25.67-16.73,41.36-20.71c16.17-4.11,34.8-5.24,50.92-1.51c38.42,8.89,53.11,53.51,29.06,87.54
		c-10.65,15.07-26.05,26.8-38.86,39.61c47.65,8.45,83.16,32,82.02,89.48c17.02-2.91,34.18-22.21,36.65-41.88
		c1.53-12.17,1.4-24.56,3.12-36.7c3.28-23.14,20.78-35.07,43.74-30.59c15.43,3.01,18.81,8.98,18.3,24.8
		c-1.02,31.69-1.62,63.44-0.61,95.11c0.27,8.6,6.92,17,10.64,25.49c6.95-6.11,15.87-11.01,20.5-18.54
		c17.99-29.22,24.3-61.87,24.71-95.89c0.08-6.72,0.57-13.61,2.17-20.1c5.21-21,32-33.03,50.72-22.1c4.15,2.42,7.2,10.14,7.33,15.5
		c0.71,28.97,0.33,57.96,0.33,84.28c5.79-16.47,11.27-36.01,19.48-54.32c9.55-21.3,22.72-40.24,49.11-42.86
		c25.67-2.55,60.29,13.22,59.07,50.92c-0.9,27.86-0.42,55.83,1.18,83.65c0.44,7.69,7.07,15.02,10.85,22.51
		c6.41-5.51,14.12-10.06,18.97-16.7c14.35-19.67,14.01-43.53,17.58-66.4c3.32-21.35,9.88-41.54,34.69-48.28
		c2.55-0.69,4.75-4.47,6.16-7.3c17.47-35.08,61.88-45.11,93.69-21.01c23.74,17.98,33.2,43.28,35.4,71.68
		c1.13,14.57,0.2,29.3,0.2,43.89c18.16-2.46,29.68-15.47,30.75-34.11c1.64-28.48,12.84-52.43,35.9-69.92
		c26.34-19.98,61.18-15.66,89.13,9.62c5.27-7.31,9.12-17.51,16.35-21.38c7.76-4.15,18.77-3.41,28.24-2.83
		c10.82,0.66,15.46,7.29,15.64,18.9c0.66,41.93,2.3,83.84,3.61,125.76c0.06,1.91,0.51,3.81,1.1,7.95
		c18.47-17.92,31.92-36,34.51-60.53c2.11-19.98,6.18-39.38,18.71-55.89c27.28-35.92,68.97-41.27,106.26-13.65
		c6.22-26.37,19.62-34.67,44.08-27.04c10.35,3.23,15.29,9.01,14.8,21.42c-1.43,35.88-1.31,71.84-1.25,107.76
		c0.01,6.6,1.85,13.52,4.31,19.7c1.85,4.65,6.06,11.69,9.22,11.69c4.69,0,11.55-4.21,13.68-8.51c7.64-15.46,14.22-31.52,20.13-47.74
		c3.45-9.48,4.26-19.9,7.49-29.49c1.33-3.95,7.31-10.14,8.76-9.53c4.75,1.99,8.65,6.4,12.32,10.39c1.09,1.18,0.92,4.24,0.33,6.12
		c-7.78,24.92-14.06,50.49-24.14,74.46c-8.96,21.31-26.7,33.97-51.35,32.01c-26.1-2.07-39.09-19.35-46.48-42.36
		C2014.02,903.24,2013,899.72,2011.59,895.07z M889.32,805.62c9.61-2.04,18.08-4.07,26.65-5.61c33.53-6.05,60.07-40.26,57.47-74.24
		c-1.07-13.91-7.85-23.45-19.08-24.92c-22.33-2.92-39.49,8.69-56.81,20.54c-11.88,8.12-7.53,19.65-8,29.93
		C888.74,768.85,889.32,786.44,889.32,805.62z M887.55,887.97c18.73,0.98,33.77,1.32,48.72,2.66c16.4,1.47,32.72,3.82,49.06,5.87
		c5.9,0.74,11.16-0.41,9.71-7.5c-2.85-13.93-4.54-28.8-10.83-41.18c-10.25-20.18-33.53-29.96-49.49-24.3
		c-12.73,4.52-25.63,8.59-38.13,13.66c-3.58,1.45-8.44,5.5-8.63,8.61C887.04,860.44,887.55,875.17,887.55,887.97z M1737.7,793.46
		c-11.24,0.74-15.82,11.38-18.81,21.88c-8.29,29.09-8.73,58.56,1.56,87.19c2.52,7.01,9.89,16.19,15.91,16.9
		c5.7,0.67,15.65-7.18,18.32-13.55c9.09-21.66,16.7-44.07,23.11-66.69C1783.04,820.68,1759.28,792.91,1737.7,793.46z
		 M2002.52,833.53c-0.74-0.2-1.49-0.39-2.23-0.59c0-2.96,0.31-5.97-0.05-8.88c-1.73-13.75-11.19-21.32-22.64-26.6
		c-8.93-4.12-17.23-2.05-24.46,4.86c-22.92,21.92-22.27,92.49,1.07,113.79c7.66,6.99,15.44,7.01,22.23-0.43
		c4.17-4.56,8.24-10.15,9.83-15.97C1992.25,877.81,1997.19,855.62,2002.52,833.53z M1585.02,885.09c0-8.17,0.59-16.54-0.11-24.8
		c-2.08-24.62-6.67-48.63-22.59-68.64c-6.25-7.85-14.28-13.83-25.17-10.99c-10.68,2.78-16.11,10.92-16.65,21.43
		c-0.47,9.12-0.1,18.47,1.42,27.46C1526.84,858.53,1559.35,887.72,1585.02,885.09z M984.76,924.21c-22.45-2.87-43.23-6.3-64.14-7.69
		c-5.87-0.39-12.13,5.22-18.21,8.07c3.95,5.9,6.57,14.05,12.09,17.31C935.64,954.38,968,946.27,984.76,924.21z M1513.03,873.54
		c-1.29,0.81-2.58,1.62-3.86,2.43c5.68,15.23,10.32,30.96,17.36,45.53c5.64,11.69,17.09,16.47,30.03,13.86
		c12.17-2.46,19.29-10.82,22.5-22.69C1551.81,907.77,1528.33,897.71,1513.03,873.54z M1784.18,978.22
		c-1.43-1.17-2.86-2.35-4.29-3.52c-12.04,8.85-25.46,16.42-35.44,27.17c-4.17,4.49-3.36,16.68-0.56,23.67
		c2.6,6.48,15.72,3.08,22.49-5.03c1.33-1.6,2.74-3.31,3.49-5.21C1774.73,1002.98,1779.43,990.59,1784.18,978.22z"/>
	<text transform="matrix(1 0 0 1 884.8819 1019.085)" class="st6 st7 st8">From the fresh fields of Sri Lanka</text>
	<circle class="st6" cx="1131.67" cy="731.39" r="34.71"/>
</g>
<g id="Layer_3">
	<g>
		
			<linearGradient id="SVGID_00000096059158432157820640000009489356782378377887_" gradientUnits="userSpaceOnUse" x1="492.0404" y1="1844.8455" x2="707.5298" y2="1926.5476">
			<stop  offset="5.327789e-09" style="stop-color:#3AAA35"/>
			<stop  offset="1" style="stop-color:#95C11F"/>
		</linearGradient>
		<path style="fill:url(#SVGID_00000096059158432157820640000009489356782378377887_);" d="M772.9,1932.62
			c-66.49-42.66-138.26-52.53-212.96-51.15c68.29-23.07,133.23-10.29,197.34,18.51c-16.42-54.58-78.75-87.66-134.26-69.58
			c-24.02,7.82-45.94,22.19-68.66,33.89c-18.33,9.44-36.44,19.33-54.87,29.14c28.63,63.41,105.51,97.93,176.33,75.35
			C707.93,1958.54,739.08,1945.33,772.9,1932.62z"/>
		
			<linearGradient id="SVGID_00000144298046957703758780000000595510072210221716_" gradientUnits="userSpaceOnUse" x1="558.4095" y1="1669.7969" x2="773.8989" y2="1751.499">
			<stop  offset="5.327789e-09" style="stop-color:#3AAA35"/>
			<stop  offset="1" style="stop-color:#95C11F"/>
		</linearGradient>
		<path style="fill:url(#SVGID_00000144298046957703758780000000595510072210221716_);" d="M604.52,1586.61
			c115.91,21.39,194.83,117.77,213.62,212.99c5.05,25.62,7,51.85,10.37,77.8c26.81-81.8,76.85-146.13,144.08-198.5
			c-54.87,19.84-91.73,60.02-123.21,111.18c-0.67-11.47,0.51-19.31-1.81-25.93c-9.07-25.96,2.09-44,20.45-60.76
			c43.99-40.16,100.87-44.27,160.18-60.36c-1.28,23.78-1.75,43.59-3.52,63.28c-4.96,55.27-30.19,97.77-80.94,122.58
			c-19.39,9.48-40.07,16.28-60.04,24.58c-43.95,18.27-65.19,58.04-56.54,104.77c0.91,4.91-0.08,10.21-0.67,15.28
			c-0.06,0.49-5.13,1.17-5.31,0.73c-1.88-4.66-3.66-9.46-4.6-14.38c-0.62-3.23-0.02-6.76,0.39-10.11
			c13.77-112.57-24.93-203.19-114.8-271.67c-24.39-18.58-50.82-34.34-82.46-39.83"/>
		
			<linearGradient id="SVGID_00000010998282578256793290000009448634510785350306_" gradientUnits="userSpaceOnUse" x1="558.365" y1="1669.9143" x2="773.8544" y2="1751.6165">
			<stop  offset="5.327789e-09" style="stop-color:#3AAA35"/>
			<stop  offset="1" style="stop-color:#95C11F"/>
		</linearGradient>
		<path style="fill:url(#SVGID_00000010998282578256793290000009448634510785350306_);" d="M792.34,1874.67
			c0,0-221.73-158.25-211.01-309.91c0,0,78.47,11.55,182.72,119.5c0,0-65.62-49.54-66.64-49.88c-1.02-0.34-25.87-14.64-25.87-14.64
			l-21.11-3.74l-22.81-7.83v5.11l-7.92,6.47l-2.97,3.4l4.43,5.45l1.7,5.11l-3.16,2.04v2.53
			C706.96,1695.79,783.08,1760.82,792.34,1874.67c-17.43-29.4-40.97-50.35-68.16-65.9"/>
		
			<linearGradient id="SVGID_00000031176827709941208750000004988539296687332495_" gradientUnits="userSpaceOnUse" x1="531.6774" y1="1740.303" x2="747.1667" y2="1822.0051">
			<stop  offset="5.327789e-09" style="stop-color:#3AAA35"/>
			<stop  offset="1" style="stop-color:#95C11F"/>
		</linearGradient>
		<path style="fill:url(#SVGID_00000031176827709941208750000004988539296687332495_);" d="M792.34,1874.67l-19.43-64.29
			l-41.45-29.88l-17.36,12.51C714.09,1793.02,709.22,1813.35,792.34,1874.67z"/>
		
			<linearGradient id="SVGID_00000039854118362109206760000011990171641490449563_" gradientUnits="userSpaceOnUse" x1="551.6688" y1="1687.5754" x2="767.1582" y2="1769.2776">
			<stop  offset="5.327789e-09" style="stop-color:#3AAA35"/>
			<stop  offset="1" style="stop-color:#95C11F"/>
		</linearGradient>
		<path style="fill:url(#SVGID_00000039854118362109206760000011990171641490449563_);" d="M792.34,1874.67
			c0,0-8.13-99.08-83.35-181.74c0,0,98.1,82.91,107.37,168.43v-41.79c0,0-19.54-35.24-19.54-39.07s-12.96-34.46-12.1-37.53
			c0.86-3.06-26.71-41.87-26.71-41.87l-22.47-27.57l-26.55-21.45l-43.91-17.36l-28.86-6.13h-22.2l27.57,54.13
			c0,0,40.08,55.15,45.06,58.21s51.96,65.36,51.96,65.36l26.55,33.7L792.34,1874.67z"/>
	</g>
	<path class="st19" d="M1970.92,2170.39c-15.48,42.32-26.37,52.19-57.04,51.56c-30.86-0.64-51.85-17.52-66.08-41.34
		c-15.14,13.67-29.92,26.71-44.26,40.23c-2.71,2.56-4.54,6.79-5.32,10.55c-5.85,28.23-15.82,54.37-36.28,75.59
		c-20.74,21.51-54.89,27.88-77.97,14.38c-23.71-13.87-27.99-44.82-6.38-61.82c14.35-11.28,31.81-19.15,48.81-26.32
		c13.06-5.51,21.78-10.98,19-27.22c-1.61-9.42-0.29-19.34-1.31-30.17c-11.77,28.64-28.35,51.01-63.04,46.53
		c-32.29-4.18-47.98-28.67-60.67-52.31c-14.95,5.88-28.94,11.2-42.74,16.98c-2.76,1.15-5.85,3.62-6.97,6.25
		c-22.91,54.05-104.86,58.7-140.71,9.77c-2.46-3.36-4.88-6.74-8.21-11.36c-3.75,5.98-6.55,11.42-10.24,16.17
		c-15.46,19.91-35.39,27.92-60.41,22.1c-24.71-5.75-42.31-21.02-45.78-45.43c-3.65-25.64-1.39-52.11-1.74-78.22
		c-0.09-6.76,0.03-13.56-0.63-20.27c-0.3-3.04-2.28-5.92-3.51-8.87c-3.21,1.57-7.91,2.28-9.38,4.85
		c-7.77,13.53-16.45,26.91-21.6,41.48c-9.56,27.04-17.27,54.76-25.05,82.39c-5.51,19.57-19.58,27.18-39.49,20.11
		c-13.56-4.82-20.43-13.61-26.57-35.62c-16.44,25.41-36.7,42.68-67.86,37.49c-30.99-5.16-48.48-23.91-51.42-53.49
		c-17.12,7.93-33.81,15.55-50.36,23.45c-2.52,1.2-4.68,3.46-6.58,5.6c-36.76,41.45-82.32,54.7-135.24,40.2
		c-15.15-4.15-28.23-12.94-45.61-12.52c-15.84,0.39-23.78-14.19-26.09-28.64c-4.19-26.24-9.01-52.73-9.35-79.17
		c-0.61-48.16,1.06-96.4,3.39-144.52c1.12-23.1,31.32-39.34,51.67-28.37c6.26,3.37,9.33,12.64,13.93,19.3
		c11.67-6.1,25.67-16.73,41.36-20.71c16.17-4.11,34.8-5.24,50.92-1.51c38.42,8.89,53.11,53.51,29.06,87.54
		c-10.65,15.07-26.05,26.8-38.86,39.61c47.65,8.45,83.16,32,82.02,89.48c17.02-2.91,34.18-22.21,36.65-41.88
		c1.53-12.17,1.4-24.56,3.12-36.7c3.28-23.14,20.78-35.07,43.74-30.59c15.43,3.01,18.81,8.98,18.3,24.8
		c-1.02,31.69-1.62,63.44-0.61,95.11c0.27,8.6,6.92,17,10.64,25.49c6.95-6.11,15.87-11.01,20.5-18.54
		c17.99-29.22,24.3-61.86,24.71-95.89c0.08-6.72,0.57-13.61,2.17-20.1c5.21-21,32-33.03,50.72-22.1c4.15,2.42,7.2,10.14,7.33,15.5
		c0.71,28.97,0.33,57.96,0.33,84.28c5.79-16.47,11.27-36.01,19.48-54.32c9.55-21.3,22.72-40.24,49.11-42.86
		c25.67-2.55,60.29,13.22,59.07,50.92c-0.9,27.86-0.42,55.83,1.18,83.65c0.44,7.69,7.07,15.02,10.85,22.51
		c6.41-5.51,14.12-10.06,18.97-16.7c14.35-19.67,14.01-43.53,17.58-66.4c3.32-21.35,9.88-41.54,34.69-48.28
		c2.55-0.69,4.75-4.47,6.16-7.3c17.47-35.08,61.88-45.11,93.69-21.01c23.74,17.98,33.2,43.28,35.4,71.68
		c1.13,14.57,0.2,29.3,0.2,43.89c18.16-2.46,29.68-15.47,30.75-34.11c1.64-28.48,12.84-52.43,35.9-69.92
		c26.34-19.98,61.18-15.66,89.13,9.62c5.27-7.31,9.12-17.51,16.35-21.38c7.76-4.15,18.77-3.41,28.24-2.83
		c10.82,0.66,15.46,7.29,15.64,18.9c0.66,41.93,2.3,83.84,3.61,125.76c0.06,1.91,0.51,3.81,1.1,7.95
		c18.47-17.92,31.92-36,34.51-60.53c2.11-19.98,6.18-39.38,18.71-55.89c27.28-35.92,68.97-41.27,106.26-13.65
		c6.22-26.37,19.62-34.67,44.08-27.04c10.35,3.23,15.29,9.01,14.8,21.42c-1.43,35.88-1.31,71.84-1.25,107.76
		c0.01,6.6,1.85,13.52,4.32,19.7c1.85,4.65,6.06,11.69,9.22,11.69c4.69,0,11.55-4.21,13.68-8.51c7.64-15.46,14.22-31.52,20.13-47.74
		c3.45-9.48,4.26-19.9,7.49-29.49c1.33-3.95,7.31-10.14,8.76-9.53c4.75,1.99,8.65,6.4,12.32,10.39c1.09,1.18,0.92,4.24,0.33,6.12
		c-7.78,24.92-14.06,50.49-24.14,74.46c-8.96,21.31-26.7,33.97-51.35,32.01c-26.1-2.07-39.09-19.35-46.48-42.36
		C1973.35,2178.56,1972.33,2175.04,1970.92,2170.39z M848.65,2080.94c9.61-2.04,18.08-4.07,26.65-5.61
		c33.53-6.05,60.07-40.26,57.47-74.24c-1.07-13.91-7.85-23.45-19.08-24.92c-22.33-2.92-39.49,8.69-56.81,20.54
		c-11.88,8.12-7.53,19.65-8,29.93C848.07,2044.17,848.65,2061.77,848.65,2080.94z M846.88,2163.29c18.73,0.98,33.77,1.32,48.72,2.66
		c16.4,1.47,32.72,3.82,49.06,5.88c5.9,0.74,11.16-0.41,9.71-7.5c-2.85-13.93-4.54-28.8-10.83-41.18
		c-10.25-20.18-33.53-29.96-49.49-24.3c-12.73,4.52-25.63,8.59-38.13,13.66c-3.58,1.45-8.44,5.5-8.63,8.61
		C846.37,2135.76,846.88,2150.49,846.88,2163.29z M1697.03,2068.78c-11.24,0.74-15.82,11.38-18.81,21.88
		c-8.29,29.09-8.73,58.56,1.56,87.19c2.52,7.01,9.89,16.19,15.91,16.9c5.7,0.67,15.65-7.18,18.32-13.55
		c9.09-21.66,16.7-44.07,23.11-66.69C1742.37,2096,1718.61,2068.23,1697.03,2068.78z M1961.85,2108.85
		c-0.74-0.2-1.49-0.39-2.23-0.59c0-2.96,0.31-5.97-0.05-8.88c-1.73-13.75-11.19-21.32-22.64-26.6c-8.93-4.12-17.23-2.05-24.46,4.86
		c-22.92,21.92-22.27,92.49,1.07,113.79c7.66,6.99,15.44,7.01,22.23-0.43c4.17-4.56,8.24-10.15,9.83-15.97
		C1951.58,2153.13,1956.52,2130.94,1961.85,2108.85z M1544.35,2160.41c0-8.17,0.59-16.54-0.11-24.8
		c-2.08-24.62-6.67-48.63-22.59-68.64c-6.25-7.85-14.28-13.83-25.17-10.99c-10.68,2.78-16.11,10.92-16.65,21.43
		c-0.47,9.12-0.1,18.47,1.42,27.46C1486.17,2133.85,1518.68,2163.04,1544.35,2160.41z M944.09,2199.53
		c-22.45-2.87-43.23-6.3-64.14-7.69c-5.87-0.39-12.13,5.22-18.21,8.07c3.95,5.9,6.57,14.05,12.09,17.31
		C894.97,2229.7,927.33,2221.59,944.09,2199.53z M1472.36,2148.86c-1.29,0.81-2.58,1.62-3.86,2.43
		c5.68,15.23,10.32,30.96,17.36,45.53c5.64,11.69,17.09,16.47,30.03,13.86c12.17-2.46,19.29-10.82,22.5-22.69
		C1511.14,2183.09,1487.66,2173.04,1472.36,2148.86z M1743.51,2253.55c-1.43-1.17-2.86-2.35-4.29-3.52
		c-12.04,8.85-25.46,16.42-35.44,27.17c-4.17,4.49-3.36,16.68-0.56,23.67c2.6,6.48,15.72,3.08,22.49-5.03
		c1.33-1.6,2.74-3.31,3.49-5.21C1734.06,2278.3,1738.76,2265.91,1743.51,2253.55z"/>
	<text transform="matrix(1 0 0 1 844.2119 2294.4065)" class="st20 st7 st8">From the fresh fields of Sri Lanka</text>
	<circle class="st20" cx="1091" cy="2006.71" r="34.71"/>
</g>
</svg>
